HIERARCHY
ROOT Hips
{
 OFFSET 0.000000 0.000000 0.000000
 CHANNELS 6 Xposition Yposition Zposition Yrotation Xrotation Zrotation
 JOINT Chest
 {
  OFFSET 0.000000 9.857222 0.000240
  CHANNELS 3 Yrotation Xrotation Zrotation
  JOINT Chest2
  {
   OFFSET 0.000000 10.876940 -0.000436
   CHANNELS 3 Yrotation Xrotation Zrotation
   JOINT Chest3
   {
    OFFSET 0.000000 9.827798 0.000000
    CHANNELS 3 Yrotation Xrotation Zrotation
    JOINT Chest4
    {
     OFFSET 0.000000 9.827798 0.000000
     CHANNELS 3 Yrotation Xrotation Zrotation
     JOINT Neck
     {
      OFFSET 0.000000 13.831992 0.000000
      CHANNELS 3 Yrotation Xrotation Zrotation
      JOINT Head
      {
       OFFSET 0.000000 9.147643 -0.001036
       CHANNELS 3 Yrotation Xrotation Zrotation
       End Site
       {
        OFFSET 0.000000 17.515799 -0.000541
       }
      }
     }
     JOINT RightCollar
     {
      OFFSET -3.001579 7.717577 0.000000
      CHANNELS 3 Yrotation Xrotation Zrotation
      JOINT RightShoulder
      {
       OFFSET -14.002642 0.000000 0.000000
       CHANNELS 3 Yrotation Xrotation Zrotation
       JOINT RightElbow
       {
        OFFSET -30.053852 0.000000 0.000000
        CHANNELS 3 Yrotation Xrotation Zrotation
        JOINT RightWrist
        {
         OFFSET -24.564923 0.000000 -0.000000
         CHANNELS 3 Yrotation Xrotation Zrotation
         End Site
         {
          OFFSET -18.334355 0.000000 0.000000
         }
        }
       }
      }
     }
     JOINT LeftCollar
     {
      OFFSET 3.001579 7.717577 0.000000
      CHANNELS 3 Yrotation Xrotation Zrotation
      JOINT LeftShoulder
      {
       OFFSET 14.002642 0.000000 0.000000
       CHANNELS 3 Yrotation Xrotation Zrotation
       JOINT LeftElbow
       {
        OFFSET 30.053852 0.000000 0.000000
        CHANNELS 3 Yrotation Xrotation Zrotation
        JOINT LeftWrist
        {
         OFFSET 24.564923 0.000000 -0.000000
         CHANNELS 3 Yrotation Xrotation Zrotation
         End Site
         {
          OFFSET 18.334355 0.000000 0.000000
         }
        }
       }
      }
     }
    }
   }
  }
 }
 JOINT RightHip
 {
  OFFSET -8.003235 -0.001175 -0.000120
  CHANNELS 3 Yrotation Xrotation Zrotation
  JOINT RightKnee
  {
   OFFSET 0.000000 -41.759727 0.000113
   CHANNELS 3 Yrotation Xrotation Zrotation
   JOINT RightAnkle
   {
    OFFSET 0.000000 -40.728748 0.000159
    CHANNELS 3 Yrotation Xrotation Zrotation
    JOINT RightToe
    {
     OFFSET 0.000000 -6.515296 14.732841
     CHANNELS 3 Yrotation Xrotation Zrotation
     End Site
     {
      OFFSET 0.000000 -1.502839 6.412115
     }
    }
   }
  }
 }
 JOINT LeftHip
 {
  OFFSET 8.003235 -0.001175 -0.000120
  CHANNELS 3 Yrotation Xrotation Zrotation
  JOINT LeftKnee
  {
   OFFSET 0.000000 -41.759727 0.000113
   CHANNELS 3 Yrotation Xrotation Zrotation
   JOINT LeftAnkle
   {
    OFFSET 0.000000 -40.728748 0.000159
    CHANNELS 3 Yrotation Xrotation Zrotation
    JOINT LeftToe
    {
     OFFSET 0.000000 -6.515296 14.732841
     CHANNELS 3 Yrotation Xrotation Zrotation
     End Site
     {
      OFFSET 0.000000 -1.502839 6.412115
     }
    }
   }
  }
 }
}
MOTION
Frames: 13
Frame Time: 0.016667
-25.652664 27.149398 86.101332 -28.928455 61.345016 0.778618 -2.401391 12.861860 0.300983 -1.574586 5.164524 -0.345338 -1.574586 5.164524 -0.345338 -1.177214 3.874314 -0.245491 1.374343 15.388813 -0.013472 2.573448 -7.594398 -0.538141 14.286857 5.580595 8.299702 52.939264 10.867541 30.192581 29.076498 41.795487 -43.771170 -20.756460 7.794567 -61.061601 -13.797713 7.793627 -9.430342 -16.722581 19.029766 -9.321881 -71.467203 12.961248 47.211874 3.167870 2.542742 55.137545 -1.572073 20.810168 -27.265896 -19.151922 1.547646 -3.854568 -15.779065 -10.470488 4.995700 -0.279666 -0.653375 0.123567 -21.997351 16.673253 0.134387 -2.310245 -1.108784 -27.178504 -15.225359 -23.412533 -10.138835 -0.792867 -1.137764 -0.163733
-25.521263 27.694171 86.920021 -28.018974 62.295143 2.207443 -2.877865 13.090560 -0.364120 -1.578856 5.470618 -0.386329 -1.578856 5.470618 -0.386329 -1.179774 4.103995 -0.275357 1.411410 14.610352 0.096548 2.613537 -9.041659 -0.362632 14.300012 5.250638 8.651137 51.231836 11.422877 30.042759 29.628738 42.951727 -45.829959 -21.121298 7.505661 -61.288448 -14.216303 6.567329 -9.250412 -13.963151 17.866328 -9.193785 -74.504713 14.666631 46.447083 3.700379 2.875508 55.387284 -2.342836 20.338307 -28.052482 -19.467892 1.536197 -3.731884 -16.040609 -10.827762 4.973787 0.039881 -0.505988 0.282294 -22.613757 16.046831 -0.350490 -2.249964 -1.213349 -27.218315 -15.316484 -23.920951 -9.980639 -0.850588 -0.727673 -0.207472
-25.250395 28.375706 87.820165 -27.563891 62.954230 3.036862 -3.031990 13.530159 -0.824390 -1.461484 5.825623 -0.424251 -1.461484 5.825623 -0.424251 -1.091110 4.370263 -0.303941 1.290438 13.822113 0.211067 2.352283 -10.509449 -0.115188 13.852030 4.780299 9.178152 49.461496 12.410027 28.959333 31.075439 43.314334 -46.952152 -21.372046 7.340178 -61.448875 -15.080376 5.081700 -8.801534 -12.010185 18.316439 -10.012824 -76.558059 16.376915 47.327574 4.010711 3.148425 55.561529 -2.794950 20.209161 -28.604204 -19.625207 1.515092 -3.641652 -16.276611 -11.199496 4.969337 0.171894 -0.367818 0.368961 -22.805761 15.807944 -0.681647 -1.867531 -1.086524 -27.218622 -16.293338 -24.436179 -9.972366 -0.527175 -0.434133 -0.066746
-24.772200 29.052451 88.612583 -27.693535 63.394301 3.123871 -3.602876 13.742289 -1.014498 -1.587699 6.041685 -0.387097 -1.587699 6.041685 -0.387097 -1.185829 4.532307 -0.274308 1.510069 13.320770 0.110269 2.816022 -11.434800 -0.404504 14.204029 3.905178 9.019770 47.448017 12.921366 27.512112 34.133871 44.173595 -45.675693 -21.613322 7.122460 -61.551325 -14.886950 4.251546 -9.529648 -10.739004 19.299650 -11.472255 -77.704215 18.494813 49.033084 4.128729 3.301734 55.721172 -2.731642 20.348556 -28.843092 -19.690684 1.554638 -3.665512 -16.715273 -11.388711 5.191348 0.162443 -0.294826 0.351593 -22.740943 15.848798 -0.979957 -1.635059 -1.011074 -27.116813 -17.093083 -24.854636 -9.986209 -0.206119 -0.254408 0.085113
-24.070678 29.756867 89.301083 -28.016114 63.755242 2.805477 -3.910572 13.903195 -1.045435 -1.675097 6.180976 -0.357968 -1.675097 6.180976 -0.357968 -1.251469 4.636755 -0.251217 1.662091 12.915917 0.101403 3.115976 -12.183344 -0.493640 14.821011 3.535692 9.088641 44.534835 11.518635 25.543735 38.236588 46.139427 -42.716676 -21.911549 6.952368 -61.590117 -15.342538 4.312169 -10.480197 -8.747907 18.802542 -12.197927 -79.098802 20.533491 49.860692 4.135444 3.417119 55.763387 -2.554513 20.485184 -28.916875 -19.641624 1.646929 -3.673781 -17.059844 -11.519767 5.345350 0.132953 -0.259159 0.331425 -22.718950 15.982335 -1.006372 -1.781347 -1.179659 -27.204263 -17.266072 -25.015283 -9.876453 -0.001934 -0.226451 0.186926
-23.453079 30.476259 89.744496 -28.216375 64.073502 2.585533 -4.032218 14.019878 -1.086716 -1.698836 6.259076 -0.343204 -1.698836 6.259076 -0.343204 -1.269330 4.695304 -0.239689 1.707054 12.539066 0.112501 3.204974 -12.882404 -0.501383 15.856448 3.729570 9.593592 41.205268 9.029456 24.024966 42.019063 48.611544 -39.692087 -22.136019 6.958429 -61.668983 -15.667334 4.547643 -11.207799 -6.863682 18.142520 -12.644989 -80.641391 22.369541 50.395177 3.964641 3.525867 55.631963 -2.604869 20.523113 -29.092548 -19.565805 1.758622 -3.631762 -17.127313 -11.669685 5.374284 0.130055 -0.226077 0.321167 -22.914971 16.052276 -1.150029 -1.964170 -1.335995 -27.197588 -17.169599 -25.162455 -9.739824 0.093306 -0.160105 0.237768
-23.172174 31.117042 90.148765 -28.273936 64.356076 2.539612 -4.239768 14.146012 -1.096755 -1.767503 6.361373 -0.315610 -1.767503 6.361373 -0.315610 -1.320965 4.771990 -0.218001 1.798388 12.120197 0.010900 3.432129 -13.655150 -0.745992 16.937687 3.581161 9.925742 38.349859 7.634209 23.128943 44.996249 50.420438 -37.767186 -22.337052 6.914150 -61.755740 -15.159134 4.167470 -11.806767 -5.544955 18.066275 -13.152124 -82.141691 23.942556 50.892738 3.686387 3.570502 55.457089 -2.633950 20.550833 -29.212473 -19.621442 1.933613 -3.671234 -17.068169 -11.783203 5.446365 0.077511 -0.223760 0.263100 -23.207308 16.044189 -1.254277 -2.048625 -1.399841 -27.307765 -17.116089 -25.179978 -9.592620 0.118071 -0.161235 0.264133
-22.848330 31.593038 90.402768 -28.476617 64.488832 2.402707 -4.197998 14.482150 -1.116727 -1.737344 6.550383 -0.303376 -1.737344 6.550383 -0.303376 -1.298321 4.913697 -0.208592 1.758763 11.594246 -0.044828 3.394079 -14.630954 -0.852080 17.316513 3.437014 10.285820 35.906821 7.848858 21.808691 47.397924 50.645264 -37.401009 -22.469397 6.923440 -61.835813 -15.294379 3.301616 -12.087808 -3.576023 17.853399 -13.221585 -83.974677 25.196194 50.697381 3.626240 3.601575 55.425827 -2.457065 20.757254 -29.298510 -19.732343 2.105669 -3.777270 -17.086072 -11.815751 5.596781 -0.005244 -0.209114 0.177835 -23.354781 16.150773 -1.371148 -2.042498 -1.336717 -27.386473 -17.150839 -25.675702 -10.008621 0.390518 0.040948 0.479909
-22.527584 31.823332 90.702469 -29.102126 64.538611 1.861260 -4.147377 14.743468 -1.137900 -1.671535 6.727547 -0.301210 -1.671535 6.727547 -0.301210 -1.248877 5.046528 -0.207173 1.734386 11.176952 -0.084186 3.375961 -15.405134 -0.930372 17.684095 3.627834 10.746974 34.168126 9.275086 20.910605 47.918704 50.158184 -39.226486 -22.466473 6.935342 -61.939363 -15.613920 2.842808 -12.507394 -1.812123 17.280332 -13.506215 -85.346840 26.670697 50.060362 3.858026 3.623215 55.644354 -2.104026 21.070668 -29.303574 -19.772783 2.231148 -3.889996 -17.199380 -11.813919 5.738194 -0.064366 -0.193131 0.103594 -23.212535 16.402048 -1.396423 -2.104874 -1.285531 -27.452084 -17.458740 -26.029808 -10.209666 0.598771 0.121154 0.611246
-21.976875 31.978318 91.070690 -29.688887 64.400689 1.272915 -4.316841 14.944026 -1.145566 -1.746958 6.818651 -0.304444 -1.746958 6.818651 -0.304444 -1.305256 5.114908 -0.208491 1.907825 10.934064 -0.164887 3.753339 -15.848637 -1.171355 18.604856 3.898697 11.017224 33.014435 10.265254 21.009934 47.463869 50.339618 -41.196608 -22.451168 6.910225 -62.022277 -15.450394 3.077569 -13.035226 -0.850833 16.871197 -14.480122 -85.880850 28.372306 50.021680 4.128949 3.691698 55.845493 -1.837435 21.527441 -29.325364 -19.594456 2.357320 -3.976122 -17.389647 -11.686110 5.906127 -0.134276 -0.272211 0.037650 -23.212385 16.878966 -1.458763 -2.239409 -1.465699 -27.549560 -17.552096 -26.212789 -10.231234 0.682683 0.172309 0.662808
-21.476001 32.092857 91.569996 -30.243382 64.225074 0.587065 -4.329387 15.195083 -1.023133 -1.826204 6.879466 -0.295559 -1.826204 6.879466 -0.295559 -1.364661 5.160537 -0.200759 2.067676 10.652595 -0.206661 4.090392 -16.364638 -1.334774 19.443640 4.055606 11.056016 31.870312 10.655888 21.559408 47.242144 50.947561 -42.547454 -22.461697 6.883802 -62.134907 -15.258163 3.173641 -13.337807 -0.007045 16.530153 -15.599580 -86.569253 30.039996 49.922867 4.224768 3.718793 55.880640 -1.672078 21.944529 -29.292219 -19.607553 2.405292 -3.942157 -17.221468 -11.464338 5.958308 -0.171520 -0.423438 -0.010976 -23.248118 17.466097 -1.475241 -2.554839 -1.787218 -27.551176 -17.351830 -26.371263 -10.198021 0.661473 0.195848 0.653870
-21.092606 32.154957 91.974134 -30.773217 64.380460 -0.011142 -4.278737 15.294411 -0.943072 -1.835589 6.903097 -0.277905 -1.835589 6.903097 -0.277905 -1.371868 5.178213 -0.187355 2.141245 10.256705 -0.234696 4.260480 -17.095936 -1.439298 19.920472 3.923647 11.138419 30.449801 11.345439 21.778949 47.703178 51.313643 -43.418565 -22.497903 6.831429 -62.309012 -14.923915 2.519844 -13.317510 1.480291 16.181465 -16.117798 -88.637355 31.193729 48.609082 4.393246 3.833625 55.930863 -1.680418 21.928012 -29.362696 -19.643311 2.418432 -3.890649 -16.900065 -11.359350 6.002473 -0.194519 -0.448176 -0.052498 -23.393693 17.710343 -1.370356 -2.849309 -2.175904 -27.621191 -17.097612 -26.551407 -10.120544 0.670690 0.232706 0.649882
-20.715090 32.207459 92.410982 -31.818726 64.772138 -1.066891 -4.253488 15.337570 -0.946954 -1.802588 6.922520 -0.266375 -1.802588 6.922520 -0.266375 -1.347261 5.192728 -0.179032 2.237585 9.778868 -0.204446 4.452758 -17.980713 -1.446571 20.229754 3.246306 11.392768 28.768881 12.155815 21.195936 49.383233 51.480191 -42.972511 -22.486381 6.719292 -62.516806 -14.043189 0.952678 -13.042978 2.928139 17.250335 -16.406907 -90.691428 31.925369 47.738290 4.735562 3.946225 56.154746 -1.343838 21.644729 -29.340043 -19.691797 2.488341 -3.922494 -16.711354 -11.309335 6.121105 -0.220366 -0.412550 -0.092212 -23.298731 17.691263 -1.168694 -2.950414 -2.551478 -27.749101 -16.998409 -26.629483 -9.977710 0.657326 0.267147 0.622608
